HIERARCHY
ROOT hip
{
  OFFSET 5.51535 103.731 -2.80141
  CHANNELS 6 Xposition Yposition Zposition Zrotation Xrotation Yrotation
  JOINT abdomen
  {
    OFFSET 0 -1.186 -1.5018
    CHANNELS 6 Xposition Yposition Zposition Zrotation Xrotation Yrotation
    JOINT abdomen2
    {
      OFFSET 0 9.964 0.2134
      CHANNELS 6 Xposition Yposition Zposition Zrotation Xrotation Yrotation
      JOINT chest
      {
        OFFSET 0 13.134 -3.2573
        CHANNELS 6 Xposition Yposition Zposition Zrotation Xrotation Yrotation
        JOINT neck
        {
          OFFSET 0 20.686 -1.6905
          CHANNELS 6 Xposition Yposition Zposition Zrotation Xrotation Yrotation
          JOINT head
          {
            OFFSET 0 7.23801 -0.1237
            CHANNELS 6 Xposition Yposition Zposition Zrotation Xrotation Yrotation
            End Site
            {
              OFFSET 0 0 0
            }
          }
        }
        JOINT lCollar
        {
          OFFSET 1.7069 20.075 5.0056
          CHANNELS 6 Xposition Yposition Zposition Zrotation Xrotation Yrotation
          JOINT lShldr
          {
            OFFSET 13.6458 -0.0470195 -4.849
            CHANNELS 6 Xposition Yposition Zposition Zrotation Xrotation Yrotation
            JOINT lForeArm
            {
              OFFSET 28.3255 -0.97589 2.2888
              CHANNELS 6 Xposition Yposition Zposition Zrotation Xrotation Yrotation
              JOINT lHand
              {
                OFFSET 22.1583 -0.529998 10.8316
                CHANNELS 6 Xposition Yposition Zposition Zrotation Xrotation Yrotation
                JOINT lThumb1
                {
                  OFFSET 0.786 0.111997 2.5817
                  CHANNELS 6 Xposition Yposition Zposition Zrotation Xrotation Yrotation
                  JOINT lThumb2
                  {
                    OFFSET 0.360097 -0.877999 4.2331
                    CHANNELS 6 Xposition Yposition Zposition Zrotation Xrotation Yrotation
                    JOINT lThumb2_End
                    {
                      OFFSET 1.8127 -1.21601 2.2227
                      CHANNELS 6 Xposition Yposition Zposition Zrotation Xrotation Yrotation
                      End Site
                      {
                        OFFSET 0.0180981 -0.012195 0.0222007
                      }
                    }
                  }
                }
                JOINT lCarpal1
                {
                  OFFSET 0.9571 1.114 1.7695
                  CHANNELS 6 Xposition Yposition Zposition Zrotation Xrotation Yrotation
                  JOINT lIndex1
                  {
                    OFFSET 4.12461 0.486992 4.1451
                    CHANNELS 6 Xposition Yposition Zposition Zrotation Xrotation Yrotation
                    JOINT lIndex2
                    {
                      OFFSET 3.4052 -1.45401 2.7682
                      CHANNELS 6 Xposition Yposition Zposition Zrotation Xrotation Yrotation
                      JOINT lIndex2_End
                      {
                        OFFSET 1.45309 -1.79499 1.2713
                        CHANNELS 6 Xposition Yposition Zposition Zrotation Xrotation Yrotation
                        End Site
                        {
                          OFFSET 0.0144979 -0.0179083 0.0126995
                        }
                      }
                    }
                  }
                  JOINT lMid1
                  {
                    OFFSET 5.6954 0.209987 2.1184
                    CHANNELS 6 Xposition Yposition Zposition Zrotation Xrotation Yrotation
                    JOINT lMid2
                    {
                      OFFSET 3.9766 -1.53999 2.3863
                      CHANNELS 6 Xposition Yposition Zposition Zrotation Xrotation Yrotation
                      JOINT lMid2_End
                      {
                        OFFSET 1.4042 -1.926 1.125
                        CHANNELS 6 Xposition Yposition Zposition Zrotation Xrotation Yrotation
                        End Site
                        {
                          OFFSET 0.013999 -0.0193044 0.011301
                        }
                      }
                    }
                  }
                }
                JOINT lCarpal2
                {
                  OFFSET 2.0956 0.66 -0.3894
                  CHANNELS 6 Xposition Yposition Zposition Zrotation Xrotation Yrotation
                  JOINT lRing1
                  {
                    OFFSET 5.0395 -0.090013 2.4971
                    CHANNELS 6 Xposition Yposition Zposition Zrotation Xrotation Yrotation
                    JOINT lRing2
                    {
                      OFFSET 3.7921 -1.55199 1.4806
                      CHANNELS 6 Xposition Yposition Zposition Zrotation Xrotation Yrotation
                      JOINT lRing2_End
                      {
                        OFFSET 1.4655 -1.808 0.9609
                        CHANNELS 6 Xposition Yposition Zposition Zrotation Xrotation Yrotation
                        End Site
                        {
                          OFFSET 0.0147015 -0.0181014 0.00959957
                        }
                      }
                    }
                  }
                  JOINT lPinky1
                  {
                    OFFSET 4.9141 -1.269 0.3591
                    CHANNELS 6 Xposition Yposition Zposition Zrotation Xrotation Yrotation
                    JOINT lPinky2
                    {
                      OFFSET 3.1477 -1.685 0.8462
                      CHANNELS 6 Xposition Yposition Zposition Zrotation Xrotation Yrotation
                      JOINT lPinky2_End
                      {
                        OFFSET 0.805498 -1.58501 0.795499
                        CHANNELS 6 Xposition Yposition Zposition Zrotation Xrotation Yrotation
                        End Site
                        {
                          OFFSET 0.00809703 -0.0157944 0.00799848
                        }
                      }
                    }
                  }
                }
              }
            }
          }
        }
        JOINT rCollar
        {
          OFFSET -1.7069 20.075 5.0056
          CHANNELS 6 Xposition Yposition Zposition Zrotation Xrotation Yrotation
          JOINT rShldr
          {
            OFFSET -13.6458 -0.0470107 -4.849
            CHANNELS 6 Xposition Yposition Zposition Zrotation Xrotation Yrotation
            JOINT rForeArm
            {
              OFFSET -28.3255 -0.975895 2.2888
              CHANNELS 6 Xposition Yposition Zposition Zrotation Xrotation Yrotation
              JOINT rHand
              {
                OFFSET -22.1583 -0.530007 10.8316
                CHANNELS 6 Xposition Yposition Zposition Zrotation Xrotation Yrotation
                JOINT rThumb1
                {
                  OFFSET -0.785997 0.112005 2.5817
                  CHANNELS 6 Xposition Yposition Zposition Zrotation Xrotation Yrotation
                  JOINT rThumb2
                  {
                    OFFSET -0.360106 -0.877994 4.2331
                    CHANNELS 6 Xposition Yposition Zposition Zrotation Xrotation Yrotation
                    JOINT rThumb2_End
                    {
                      OFFSET -1.8127 -1.216 2.2227
                      CHANNELS 6 Xposition Yposition Zposition Zrotation Xrotation Yrotation
                      End Site
                      {
                        OFFSET -0.0180972 -0.0121973 0.0222005
                      }
                    }
                  }
                }
                JOINT rCarpal1
                {
                  OFFSET -0.9571 1.114 1.7695
                  CHANNELS 6 Xposition Yposition Zposition Zrotation Xrotation Yrotation
                  JOINT rIndex1
                  {
                    OFFSET -4.1246 0.487011 4.1451
                    CHANNELS 6 Xposition Yposition Zposition Zrotation Xrotation Yrotation
                    JOINT rIndex2
                    {
                      OFFSET -3.4052 -1.45401 2.7682
                      CHANNELS 6 Xposition Yposition Zposition Zrotation Xrotation Yrotation
                      JOINT rIndex2_End
                      {
                        OFFSET -1.4531 -1.795 1.2713
                        CHANNELS 6 Xposition Yposition Zposition Zrotation Xrotation Yrotation
                        End Site
                        {
                          OFFSET -0.0145077 -0.0180048 0.0127017
                        }
                      }
                    }
                  }
                  JOINT rMid1
                  {
                    OFFSET -5.6954 0.210002 2.1184
                    CHANNELS 6 Xposition Yposition Zposition Zrotation Xrotation Yrotation
                    JOINT rMid2
                    {
                      OFFSET -3.9766 -1.54 2.3863
                      CHANNELS 6 Xposition Yposition Zposition Zrotation Xrotation Yrotation
                      JOINT rMid2_End
                      {
                        OFFSET -1.4042 -1.926 1.125
                        CHANNELS 6 Xposition Yposition Zposition Zrotation Xrotation Yrotation
                        End Site
                        {
                          OFFSET -0.0139948 -0.0192916 0.0112994
                        }
                      }
                    }
                  }
                }
                JOINT rCarpal2
                {
                  OFFSET -2.0956 0.66 -0.3894
                  CHANNELS 6 Xposition Yposition Zposition Zrotation Xrotation Yrotation
                  JOINT rRing1
                  {
                    OFFSET -5.03951 -0.0899879 2.4971
                    CHANNELS 6 Xposition Yposition Zposition Zrotation Xrotation Yrotation
                    JOINT rRing2
                    {
                      OFFSET -3.7921 -1.55201 1.4806
                      CHANNELS 6 Xposition Yposition Zposition Zrotation Xrotation Yrotation
                      JOINT rRing2_End
                      {
                        OFFSET -1.4655 -1.808 0.960901
                        CHANNELS 6 Xposition Yposition Zposition Zrotation Xrotation Yrotation
                        End Site
                        {
                          OFFSET -0.0146934 -0.0180999 0.00959832
                        }
                      }
                    }
                  }
                  JOINT rPinky1
                  {
                    OFFSET -4.91411 -1.26899 0.359202
                    CHANNELS 6 Xposition Yposition Zposition Zrotation Xrotation Yrotation
                    JOINT rPinky2
                    {
                      OFFSET -3.14769 -1.68501 0.846199
                      CHANNELS 6 Xposition Yposition Zposition Zrotation Xrotation Yrotation
                      JOINT rPinky2_End
                      {
                        OFFSET -0.805498 -1.585 0.7955
                        CHANNELS 6 Xposition Yposition Zposition Zrotation Xrotation Yrotation
                        End Site
                        {
                          OFFSET -0.00810035 -0.0158035 0.00800029
                        }
                      }
                    }
                  }
                }
              }
            }
          }
        }
      }
    }
  }
  JOINT lThigh
  {
    OFFSET 8.367 -8.2066 0.5982
    CHANNELS 6 Xposition Yposition Zposition Zrotation Xrotation Yrotation
    JOINT lShin
    {
      OFFSET 2.1923 -43.463 -0.4932
      CHANNELS 6 Xposition Yposition Zposition Zrotation Xrotation Yrotation
      JOINT lFoot
      {
        OFFSET 0.733301 -45.8593 -2.6451
        CHANNELS 6 Xposition Yposition Zposition Zrotation Xrotation Yrotation
        End Site
        {
          OFFSET 2.6618 -4.2699 12.3931
        }
      }
    }
  }
  JOINT rThigh
  {
    OFFSET -8.367 -8.2066 0.5982
    CHANNELS 6 Xposition Yposition Zposition Zrotation Xrotation Yrotation
    JOINT rShin
    {
      OFFSET -2.1923 -43.463 -0.4931
      CHANNELS 6 Xposition Yposition Zposition Zrotation Xrotation Yrotation
      JOINT rFoot
      {
        OFFSET -0.733299 -45.8593 -2.6451
        CHANNELS 6 Xposition Yposition Zposition Zrotation Xrotation Yrotation
        End Site
        {
          OFFSET -2.6618 -4.2699 12.3931
        }
      }
    }
  }
}
MOTION
Frames:	4
Frame Time:	0.0333333
-38.2297 145.408 -20.9576 2.99508 -40.1194 27.8548 -6.58759e-007 -1.186 -1.5018 -5.19318 6.25154 -6.9887 -6.676e-007 9.96399 0.213398 -9.67141 13.0691 -13.508 1.59577e-007 13.134 -3.2573 -9.67142 13.0691 -13.508 6.16725e-005 20.6861 -1.69052 -1.89456 -43.1495 29.586 -1.42069e-006 7.238 -0.123692 -14.4847 4.9068 6.49302 1.7069 20.075 5.0056 18.3362 0.249761 1.71008 13.6458 -0.0470161 -4.849 -66.9142 5.80475 -10.4223 28.3255 -0.975897 2.28881 -34.9426 12.6184 -78.5449 22.1583 -0.529982 10.8316 -50.4852 -26.6959 27.6682 0.786002 0.111995 2.5817 29.0018 36.8212 -34.7962 0.360099 -0.877996 4.2331 -6.33703 -0.117405 -11.5742 1.8127 -1.21601 2.2227 6.48485 1.48416 12.0601 0.9571 1.114 1.7695 4.77083e-015 1.59028e-015 3.18055e-015 4.1246 0.48699 4.14511 -4.88731 4.53869 12.6178 3.4052 -1.454 2.7682 -36.3635 10.0329 17.8993 1.4531 -1.79499 1.2713 -37.4308 10.1388 18.4808 5.6954 0.209987 2.1184 -1.58701 -0.577042 1.61799 3.9766 -1.53999 2.38629 -43.8284 12.1761 22.7531 1.4042 -1.926 1.12499 -9.03163 4.06861 4.02205 2.0956 0.66 -0.3894 4.77083e-015 1.59028e-015 3.18055e-015 5.0395 -0.0900145 2.49711 -8.44088 -1.94813 5.79527 3.7921 -1.55199 1.4806 -14.2679 6.48287 7.41463 1.4655 -1.808 0.960904 -15.7294 7.01825 8.23432 4.9141 -1.269 0.359103 10.4038 -12.5936 2.33179 3.1477 -1.685 0.846203 -18.2185 8.51743 9.60868 0.805497 -1.58501 0.795502 -8.80545 4.59368 4.39817 -1.7069 20.075 5.0056 -9.41228 -0.265695 21.3088 -13.6458 -0.0470151 -4.84901 52.9025 -4.00419 46.1953 -28.3255 -0.975878 2.2888 30.2548 -9.35768 75.9374 -22.1583 -0.530004 10.8316 5.00915 -55.1938 24.148 -0.785997 0.112005 2.5817 -19.2123 49.9311 17.7822 -0.360102 -0.877996 4.2331 -0.518188 0.461474 -1.59087 -1.8127 -1.216 2.2227 -4.44363 5.02822 -15.268 -0.9571 1.114 1.7695 1.76556e-031 3.18055e-015 -3.18055e-015 -4.12461 0.48701 4.14511 -23.6228 3.39781 -15.5016 -3.4052 -1.454 2.7682 39.498 10.0975 -9.27459 -1.4531 -1.79499 1.27131 45.4781 10.9509 -11.16 -5.69541 0.210001 2.11841 -1.0423 5.48656 -10.0635 -3.9766 -1.54 2.38629 52.3088 13.53 -14.1043 -1.4042 -1.92599 1.12501 44.0034 12.3922 -11.1855 -2.0956 0.66 -0.3894 1.76556e-031 3.18055e-015 -3.18055e-015 -5.03951 -0.089987 2.4971 16.4925 0.275223 -5.65894 -3.7921 -1.55201 1.4806 37.3339 11.9097 -10.7861 -1.4655 -1.80801 0.960895 38.6321 12.1694 -11.2724 -4.9141 -1.26899 0.359198 24.6637 -0.263328 -2.07522 -3.1477 -1.68501 0.846197 30.5289 11.3153 -8.19426 -0.805497 -1.585 0.795495 30.4593 11.2959 -8.1699 8.36701 -8.20661 0.598204 10.4053 -41.7145 22.1283 2.19214 -43.463 -0.492992 -179.344 72.0362 -178.99 0.733293 -45.8594 -2.64509 4.30097 7.06151 -8.79833 -8.36701 -8.2066 0.5982 23.7514 -64.1502 -16.1322 -2.1923 -43.463 -0.493107 49.7727 71.199 -46.1686 -0.7333 -45.8593 -2.64511 6.88577 2.56149 -12.1905 
-38.2317 145.433 -20.9212 3.04095 -39.9181 27.7189 -2.51413e-006 -1.186 -1.5018 -5.12991 6.01631 -7.04396 1.86629e-008 9.964 0.213402 -9.56081 12.5981 -13.6396 1.54205e-006 13.134 -3.2573 -9.56081 12.5981 -13.6396 5.11215e-006 20.686 -1.6905 -1.46775 -45.6839 29.6226 3.85787e-006 7.23801 -0.123714 -13.4209 3.06839 6.54821 1.7069 20.075 5.0056 16.2753 0.265508 1.83538 13.6458 -0.0470052 -4.84901 -65.6954 5.20382 -9.45048 28.3255 -0.975897 2.2888 -35.2374 13.9729 -78.6295 22.1583 -0.529979 10.8316 -49.9424 -26.9053 27.9055 0.786003 0.111996 2.5817 29.0019 36.8213 -34.7962 0.360097 -0.877999 4.2331 -6.33703 -0.117408 -11.5742 1.8127 -1.21601 2.2227 6.48486 1.48417 12.0601 0.9571 1.114 1.7695 -3.18055e-015 1.59028e-015 -2.38542e-015 4.1246 0.486991 4.1451 -4.8873 4.53869 12.6178 3.4052 -1.45401 2.7682 -36.3635 10.0329 17.8993 1.4531 -1.79499 1.27129 -37.4308 10.1387 18.4808 5.6954 0.209987 2.1184 -1.58701 -0.577062 1.61799 3.9766 -1.53999 2.3863 -43.8284 12.1761 22.7531 1.4042 -1.926 1.125 -9.03163 4.06859 4.02207 2.0956 0.66 -0.3894 -3.18055e-015 1.59028e-015 -2.38542e-015 5.0395 -0.0900112 2.49709 -8.44088 -1.94815 5.79526 3.7921 -1.55199 1.4806 -14.2679 6.48287 7.41463 1.4655 -1.808 0.960894 -15.7294 7.01824 8.23435 4.9141 -1.269 0.359106 10.4038 -12.5937 2.33179 3.1477 -1.68501 0.846204 -18.2185 8.51742 9.60867 0.805497 -1.58501 0.795503 -8.80545 4.59367 4.39816 -1.7069 20.075 5.0056 -10.2802 -0.268128 20.5483 -13.6458 -0.0470072 -4.849 54.0655 -2.85629 46.4699 -28.3255 -0.975893 2.2888 30.0203 -9.07605 75.6055 -22.1583 -0.530019 10.8316 5.33615 -54.7752 24.2407 -0.785998 0.112005 2.5817 -19.2124 49.9311 17.7822 -0.360104 -0.877995 4.2331 -0.518187 0.461504 -1.59087 -1.8127 -1.216 2.2227 -4.44365 5.02825 -15.268 -0.9571 1.114 1.7695 -6.36111e-015 0 -6.36111e-015 -4.12461 0.487009 4.14511 -23.6229 3.39781 -15.5016 -3.4052 -1.45401 2.7682 39.498 10.0976 -9.27463 -1.4531 -1.795 1.27129 45.4781 10.9509 -11.1601 -5.69541 0.210002 2.11841 -1.04224 5.4864 -10.0635 -3.9766 -1.54 2.38631 52.3088 13.5301 -14.1043 -1.4042 -1.92599 1.12501 44.0034 12.3922 -11.1855 -2.0956 0.66 -0.3894 -6.36111e-015 0 -6.36111e-015 -5.03951 -0.0899882 2.4971 16.4924 0.275318 -5.65898 -3.7921 -1.552 1.4806 37.3339 11.9098 -10.7861 -1.4655 -1.808 0.960899 38.6321 12.1695 -11.2724 -4.91411 -1.26899 0.359208 24.6637 -0.263341 -2.07523 -3.1477 -1.68501 0.846197 30.5289 11.3153 -8.19425 -0.805499 -1.585 0.795497 30.4592 11.296 -8.16987 8.367 -8.2066 0.59821 10.3556 -41.6831 22.1447 2.19235 -43.463 -0.49324 -179.32 72.2226 -179.044 0.733295 -45.8593 -2.64513 4.2691 6.95993 -8.81497 -8.367 -8.2066 0.598204 24.111 -64.145 -15.5382 -2.1923 -43.463 -0.4931 49.8171 71.2085 -46.2153 -0.733295 -45.8593 -2.6451 6.85992 2.52334 -12.1949 
-38.2333 145.486 -20.8702 3.09009 -39.6835 27.5701 5.85249e-007 -1.18599 -1.5018 -5.0613 5.77405 -7.08971 -3.28793e-006 9.964 0.213403 -9.44216 12.1114 -13.7525 -1.44591e-007 13.134 -3.2573 -9.44217 12.1114 -13.7525 7.2643e-007 20.686 -1.6905 -0.882681 -47.7976 29.2625 -1.048e-005 7.23802 -0.123707 -12.011 0.995925 6.50245 1.7069 20.075 5.0056 14.18 0.263374 1.88763 13.6458 -0.0470151 -4.849 -64.5012 4.53504 -8.34786 28.3255 -0.9759 2.2888 -35.5587 15.3844 -78.7659 22.1583 -0.529996 10.8316 -49.3808 -27.0597 28.2314 0.786003 0.111996 2.5817 29.0017 36.8211 -34.7961 0.360099 -0.877997 4.2331 -6.33704 -0.117416 -11.5742 1.8127 -1.21601 2.2227 6.48485 1.48416 12.0601 0.9571 1.114 1.7695 1.59028e-015 4.77083e-015 -1.98785e-015 4.1246 0.486991 4.1451 -4.88731 4.53867 12.6178 3.4052 -1.45401 2.7682 -36.3636 10.0329 17.8993 1.4531 -1.79499 1.27129 -37.4308 10.1387 18.4808 5.69541 0.209988 2.1184 -1.58703 -0.577098 1.61797 3.9766 -1.53999 2.38629 -43.8284 12.176 22.7531 1.4042 -1.926 1.12499 -9.03164 4.06858 4.02209 2.0956 0.66 -0.3894 1.59028e-015 4.77083e-015 -1.98785e-015 5.0395 -0.0900152 2.49711 -8.44088 -1.94816 5.79525 3.7921 -1.55199 1.4806 -14.2679 6.48285 7.41464 1.4655 -1.808 0.960906 -15.7294 7.01818 8.23437 4.9141 -1.269 0.359104 10.4038 -12.5937 2.33179 3.1477 -1.685 0.846204 -18.2185 8.5174 9.60869 0.805497 -1.58501 0.795502 -8.80544 4.5937 4.39816 -1.7069 20.075 5.0056 -11.0603 -0.269499 19.651 -13.6458 -0.0470174 -4.849 55.2861 -1.63608 46.7684 -28.3255 -0.975884 2.2888 29.7706 -8.70975 75.244 -22.1583 -0.530012 10.8316 5.55823 -54.2646 24.1946 -0.785997 0.112006 2.5817 -19.2124 49.9311 17.7822 -0.360103 -0.877994 4.2331 -0.518222 0.46152 -1.59084 -1.8127 -1.216 2.2227 -4.4437 5.02832 -15.2679 -0.9571 1.114 1.7695 -3.18055e-015 3.18055e-015 3.18055e-015 -4.12461 0.487011 4.14511 -23.6229 3.39783 -15.5016 -3.4052 -1.45401 2.7682 39.4981 10.0975 -9.27456 -1.4531 -1.79499 1.27131 45.4781 10.9508 -11.16 -5.69541 0.210001 2.11841 -1.04225 5.48639 -10.0635 -3.9766 -1.54 2.38631 52.3088 13.53 -14.1043 -1.4042 -1.926 1.125 44.0034 12.3922 -11.1855 -2.0956 0.66 -0.3894 -3.18055e-015 3.18055e-015 3.18055e-015 -5.03951 -0.0899866 2.4971 16.4925 0.275124 -5.65891 -3.7921 -1.55201 1.4806 37.3339 11.9098 -10.7861 -1.4655 -1.80801 0.960896 38.6322 12.1693 -11.2724 -4.9141 -1.26899 0.359199 24.6637 -0.263337 -2.07523 -3.1477 -1.68501 0.846199 30.5289 11.3154 -8.19426 -0.805498 -1.585 0.795498 30.4593 11.2958 -8.16991 8.367 -8.20659 0.598206 10.334 -41.6386 22.1945 2.19214 -43.4631 -0.49302 -179.309 72.4352 -179.06 0.733289 -45.8593 -2.64511 4.19097 7.01282 -8.84553 -8.367 -8.2066 0.598195 24.5343 -64.1095 -14.8722 -2.1923 -43.463 -0.493111 49.826 71.2108 -46.23 -0.733306 -45.8593 -2.64511 6.75972 2.52411 -12.1642 
-38.1892 145.523 -20.8613 3.104 -39.5414 27.4329 1.55806e-006 -1.186 -1.5018 -4.97763 5.55149 -7.12651 1.57555e-006 9.964 0.213399 -9.2929 11.6615 -13.8476 7.75564e-007 13.134 -3.2573 -9.2929 11.6615 -13.8476 1.16244e-005 20.6861 -1.69049 -0.821484 -49.8121 28.0249 -3.72317e-007 7.238 -0.123698 -9.26899 -1.17112 6.39825 1.7069 20.075 5.0056 12.1289 0.244996 1.85302 13.6458 -0.0470147 -4.849 -63.3884 3.86416 -7.39369 28.3255 -0.975898 2.2888 -35.7471 16.5694 -78.766 22.1583 -0.529987 10.8316 -48.973 -27.2453 28.4551 0.786002 0.111996 2.58171 29.0018 36.8211 -34.7962 0.360097 -0.877997 4.2331 -6.33706 -0.117432 -11.5742 1.8127 -1.21601 2.2227 6.48484 1.48416 12.0601 0.9571 1.114 1.7695 3.18055e-015 -1.59028e-015 -3.18055e-015 4.1246 0.486991 4.14511 -4.88734 4.53861 12.6178 3.4052 -1.45401 2.7682 -36.3636 10.0329 17.8992 1.4531 -1.79499 1.2713 -37.4308 10.1388 18.4809 5.6954 0.209987 2.1184 -1.58706 -0.577163 1.61797 3.9766 -1.53999 2.38631 -43.8284 12.176 22.7531 1.4042 -1.926 1.125 -9.03166 4.06853 4.02213 2.0956 0.66 -0.3894 3.18055e-015 -1.59028e-015 -3.18055e-015 5.0395 -0.0900113 2.4971 -8.44091 -1.94821 5.79525 3.7921 -1.55199 1.48059 -14.2679 6.48282 7.41466 1.4655 -1.808 0.9609 -15.7294 7.01811 8.23445 4.9141 -1.269 0.359104 10.4038 -12.5938 2.3318 3.1477 -1.685 0.846201 -18.2185 8.51743 9.6087 0.805499 -1.58501 0.795499 -8.80546 4.59368 4.39816 -1.7069 20.075 5.00561 -11.658 -0.267587 18.625 -13.6458 -0.0470143 -4.84901 56.3519 -0.411962 47.175 -28.3255 -0.975887 2.28879 29.0806 -8.55255 74.5282 -22.1583 -0.53001 10.8316 6.30588 -54.1293 24.3712 -0.785996 0.112005 2.5817 -19.2124 49.9311 17.7822 -0.360102 -0.877995 4.2331 -0.51828 0.461588 -1.5908 -1.8127 -1.216 2.2227 -4.4436 5.02817 -15.268 -0.9571 1.114 1.7695 6.36111e-015 0 3.18055e-015 -4.12461 0.487013 4.14511 -23.6229 3.39786 -15.5016 -3.4052 -1.45401 2.7682 39.4981 10.0975 -9.27455 -1.4531 -1.79499 1.2713 45.4781 10.9508 -11.16 -5.69541 0.210001 2.11841 -1.04224 5.48641 -10.0635 -3.9766 -1.54 2.38629 52.3088 13.53 -14.1043 -1.4042 -1.926 1.125 44.0034 12.3922 -11.1855 -2.0956 0.66 -0.3894 6.36111e-015 0 3.18055e-015 -5.03951 -0.089987 2.49711 16.4925 0.275112 -5.65891 -3.7921 -1.55201 1.4806 37.3339 11.9098 -10.7861 -1.4655 -1.80801 0.960895 38.6321 12.1693 -11.2724 -4.91411 -1.26899 0.3592 24.6636 -0.263329 -2.07523 -3.1477 -1.68501 0.846198 30.5289 11.3152 -8.19424 -0.8055 -1.58499 0.795506 30.4593 11.2958 -8.16992 8.367 -8.2066 0.598197 10.2551 -41.5626 22.1122 2.19252 -43.463 -0.493428 -179.283 72.6203 -179.112 0.7333 -45.8593 -2.64511 4.1109 6.98883 -8.82797 -8.367 -8.20659 0.598204 24.619 -64.023 -14.7114 -2.1923 -43.463 -0.493091 49.7648 71.207 -46.1942 -0.733283 -45.8593 -2.64509 6.83562 2.59116 -12.203 
